<?xml version="1.0" standalone="no"?>
<!DOCTYPE svg PUBLIC "-//W3C//DTD SVG 20010904//EN"
 "http://www.w3.org/TR/2001/REC-SVG-20010904/DTD/svg10.dtd">
<svg version="1.0" xmlns="http://www.w3.org/2000/svg"
 width="250.000000pt" height="172.000000pt" viewBox="0 0 250.000000 172.000000"
 preserveAspectRatio="xMidYMid meet">

<g transform="translate(78.400000,176.400000) scale(0.100000,-0.100000)"
fill="#FFFFFF" stroke="none">
<path d="M319 1460 c-53 -10 -116 -27 -141 -38 -64 -28 -121 -89 -149 -158
-24 -58 -24 -65 -27 -461 l-3 -403 129 0 130 0 5 338 c3 223 9 350 17 377 51
165 319 165 370 0 8 -25 14 -152 17 -315 l5 -243 22 26 c30 35 57 47 111 47
40 0 52 -5 82 -35 19 -19 36 -35 38 -35 2 0 3 143 2 318 -2 345 -6 370 -65
452 -56 79 -117 107 -288 135 -110 18 -135 18 -255 -5z"/>
<path d="M733 540 c-74 -45 -83 -139 -19 -197 82 -75 206 -19 206 92 0 97
-104 156 -187 105z" fill="#B8860B"/>
</g>
</svg>
